<svg xmlns="http://www.w3.org/2000/svg" xml:space="preserve" width="461.5" height="182" viewBox="0 0 461.5 182"><path fill="#03cf5d" d="M244.4 52v33.8h18.2c11.7 0 19.5-3.9 19.5-16.9v-2.6c0-11.7-7.8-14.3-18.2-14.3zm-18.2-15.6h39c24.7 0 36.4 13 36.4 29.9v2.6c0 16.9-11.7 32.5-36.4 32.5h-20.8v40.3h-18.2Zm132.6 70.2h-18.2c-9.1 0-13 3.9-13 10.4v1.3c0 5.2 3.9 7.8 10.4 7.8 7.8 0 13-1.3 16.9-5.2 3.9-2.6 3.9-6.5 3.9-13zm-48.1 14.3v-5.2c0-13 7.8-23.4 29.9-23.4h18.2v-2.6c0-10.4-3.9-14.3-14.3-14.3-9.1 0-15.6 2.6-22.1 7.8l-9.1-13c7.8-5.2 18.2-10.4 32.5-10.4 18.2 0 32.5 9.1 32.5 26V143h-16.9v-10.4c-3.9 6.5-15.6 10.4-23.4 10.4-18.2 0-27.3-7.8-27.3-22.1zm113.1 0-18.2-59.8h-20.8l28.6 81.9-10.4 26 16.9 6.5 41.6-114.4H442ZM179.4 182H0V0h179.4z"/><path fill="#fff" d="M45.5 45.5v91h28.59V87.09l32.5 49.41h27.295v-91h-28.59v48.09l-32.5-48.09Z"/></svg>